<svg xmlns="http://www.w3.org/2000/svg" viewBox="650 2941 72.423 72.423">
  <defs>
    <style>
      .cls-1 {
        fill: #fff;
      }

      .cls-2 {
        fill: #ffcc29;
      }
    </style>
  </defs>
  <g id="Atraveﾌ《_da_Muﾌ《ica_Assets-11" data-name="Atraveﾌ《 da Muﾌ《ica_Assets-11" transform="translate(650.1 2940.6)">
    <g id="Group_7" data-name="Group 7" transform="translate(-0.1 0.4)">
      <g id="Group_3" data-name="Group 3">
        <circle id="Ellipse_1" data-name="Ellipse 1" class="cls-1" cx="36.212" cy="36.212" r="36.212"/>
      </g>
      <g id="Group_6" data-name="Group 6" transform="translate(17.7 13.315)">
        <g id="Group_4" data-name="Group 4" transform="translate(5.846)">
          <path id="Path_4" data-name="Path 4" class="cls-2" d="M27.286,24.553a3.6,3.6,0,0,0,2.761-1.624v1.461h2.436V11.4H30.047v9.905c-.325.325-.974.974-1.461.974s-.65-.325-.65-.812V11.562H25.5v10.88C25.5,23.579,25.987,24.553,27.286,24.553Z" transform="translate(-7.475 -6.853)"/>
          <path id="Path_5" data-name="Path 5" class="cls-2" d="M19.9,21.143c0,2.273,1.137,3.41,3.572,3.41a3.238,3.238,0,0,0,3.41-3.41V14.81a3.238,3.238,0,0,0-3.41-3.41A3.372,3.372,0,0,0,19.9,14.81Zm2.6-6.171c0-.65.325-1.3.974-1.3.812,0,1.137.487,1.137,1.3v6.008c0,.65-.325,1.3-.974,1.3s-.974-.487-.974-1.3V14.972Z" transform="translate(-10.969 -6.853)"/>
          <path id="Path_6" data-name="Path 6" class="cls-2" d="M17.648,26.137h2.761V18.993L23.493,8.6H20.733l-1.786,6.982L17.161,8.6H14.4l3.248,10.393Z" transform="translate(-14.4 -8.6)"/>
        </g>
        <g id="Group_5" data-name="Group 5" transform="translate(0 20.46)">
          <path id="Path_7" data-name="Path 7" class="cls-2" d="M44.9,21.2H16.321A5.475,5.475,0,0,0,10.8,26.721V40.686a5.475,5.475,0,0,0,5.521,5.521H44.738a5.475,5.475,0,0,0,5.521-5.521V26.721A5.341,5.341,0,0,0,44.9,21.2ZM20.218,42.147h-2.6V27.858h-2.6V25.422h7.957v2.436h-2.6v14.29Zm9.093,0H27.038v-1.3a8.132,8.132,0,0,1-1.3,1.137c-1.3.65-2.923.65-2.923-1.786V29.806H25.09v9.418c0,.487.162.812.65.812a2.017,2.017,0,0,0,1.3-.974V29.644h2.273Zm8.931-2.6c0,1.461-.65,2.761-2.111,2.761a2.556,2.556,0,0,1-2.111-1.137v.974H31.747V25.422h2.273v5.359a2.776,2.776,0,0,1,2.111-1.137c1.624,0,2.273,1.461,2.273,3.085v6.82ZM46.687,36.3H42.3v2.273c0,.974,0,1.786.974,1.786s.974-.65.974-1.786v-.812h2.436v.974c0,2.436-.974,3.9-3.41,3.9-2.273,0-3.248-1.624-3.248-3.9V33.216a3.372,3.372,0,0,1,3.41-3.572c2.273,0,3.248,1.461,3.248,3.572Z" transform="translate(-10.8 -21.2)"/>
          <path id="Path_8" data-name="Path 8" class="cls-2" d="M31.174,27.6c-.812,0-.974.65-.974,1.461v1.3h2.111v-1.3C32.311,28.25,32.149,27.6,31.174,27.6Z" transform="translate(1.302 -17.207)"/>
          <path id="Path_9" data-name="Path 9" class="cls-2" d="M25.487,27.768c-.162.162-.325.162-.487.325v7.632l.487.487c.325.162.974.162,1.137-.162a1.217,1.217,0,0,0,.162-.812V28.9a1.373,1.373,0,0,0-.325-.974C26.461,27.606,25.974,27.443,25.487,27.768Z" transform="translate(-1.942 -17.213)"/>
        </g>
      </g>
    </g>
  </g>
</svg>
